<svg width="59" height="16" viewBox="0 0 59 16" fill="none" xmlns="http://www.w3.org/2000/svg">
<g opacity="0.17">
<path d="M1.40717 0.0559138V3.31756H0.65233V0.661649H0V0.0559138H1.40717Z" fill="white"/>
<path d="M3.37162 3.37348C3.10137 3.37348 2.86063 3.30669 2.6494 3.17312C2.43817 3.03955 2.27198 2.84695 2.15083 2.59534C2.03279 2.34062 1.97377 2.03775 1.97377 1.68674C1.97377 1.33572 2.03279 1.03441 2.15083 0.782796C2.27198 0.528077 2.43817 0.333931 2.6494 0.200358C2.86063 0.0667861 3.10137 0 3.37162 0C3.64187 0 3.88261 0.0667861 4.09384 0.200358C4.30507 0.333931 4.46971 0.528077 4.58775 0.782796C4.7089 1.03441 4.76947 1.33572 4.76947 1.68674C4.76947 2.03775 4.7089 2.34062 4.58775 2.59534C4.46971 2.84695 4.30507 3.03955 4.09384 3.17312C3.88261 3.30669 3.64187 3.37348 3.37162 3.37348ZM3.37162 2.73513C3.57043 2.73513 3.72574 2.6497 3.83757 2.47885C3.95251 2.30801 4.00997 2.04397 4.00997 1.68674C4.00997 1.32951 3.95251 1.06547 3.83757 0.894624C3.72574 0.723776 3.57043 0.638351 3.37162 0.638351C3.17592 0.638351 3.02061 0.723776 2.90567 0.894624C2.79384 1.06547 2.73793 1.32951 2.73793 1.68674C2.73793 2.04397 2.79384 2.30801 2.90567 2.47885C3.02061 2.6497 3.17592 2.73513 3.37162 2.73513Z" fill="white"/>
<path d="M6.53408 3.37348C6.26382 3.37348 6.02308 3.30669 5.81185 3.17312C5.60062 3.03955 5.43443 2.84695 5.31329 2.59534C5.19525 2.34062 5.13623 2.03775 5.13623 1.68674C5.13623 1.33572 5.19525 1.03441 5.31329 0.782796C5.43443 0.528077 5.60062 0.333931 5.81185 0.200358C6.02308 0.0667861 6.26382 0 6.53408 0C6.80433 0 7.04507 0.0667861 7.2563 0.200358C7.46753 0.333931 7.63216 0.528077 7.7502 0.782796C7.87135 1.03441 7.93193 1.33572 7.93193 1.68674C7.93193 2.03775 7.87135 2.34062 7.7502 2.59534C7.63216 2.84695 7.46753 3.03955 7.2563 3.17312C7.04507 3.30669 6.80433 3.37348 6.53408 3.37348ZM6.53408 2.73513C6.73288 2.73513 6.8882 2.6497 7.00003 2.47885C7.11496 2.30801 7.17243 2.04397 7.17243 1.68674C7.17243 1.32951 7.11496 1.06547 7.00003 0.894624C6.8882 0.723776 6.73288 0.638351 6.53408 0.638351C6.33838 0.638351 6.18306 0.723776 6.06813 0.894624C5.9563 1.06547 5.90038 1.32951 5.90038 1.68674C5.90038 2.04397 5.9563 2.30801 6.06813 2.47885C6.18306 2.6497 6.33838 2.73513 6.53408 2.73513Z" fill="white"/>
<path d="M9.52944 0.0559138V3.31756H8.7746V0.661649H8.12227V0.0559138H9.52944Z" fill="white"/>
<path d="M11.3541 0.0559138V3.31756H10.5993V0.661649H9.94694V0.0559138H11.3541Z" fill="white"/>
<path d="M13.3186 3.37348C13.0483 3.37348 12.8076 3.30669 12.5963 3.17312C12.3851 3.03955 12.2189 2.84695 12.0978 2.59534C11.9797 2.34062 11.9207 2.03775 11.9207 1.68674C11.9207 1.33572 11.9797 1.03441 12.0978 0.782796C12.2189 0.528077 12.3851 0.333931 12.5963 0.200358C12.8076 0.0667861 13.0483 0 13.3186 0C13.5888 0 13.8296 0.0667861 14.0408 0.200358C14.252 0.333931 14.4167 0.528077 14.5347 0.782796C14.6558 1.03441 14.7164 1.33572 14.7164 1.68674C14.7164 2.03775 14.6558 2.34062 14.5347 2.59534C14.4167 2.84695 14.252 3.03955 14.0408 3.17312C13.8296 3.30669 13.5888 3.37348 13.3186 3.37348ZM13.3186 2.73513C13.5174 2.73513 13.6727 2.6497 13.7845 2.47885C13.8994 2.30801 13.9569 2.04397 13.9569 1.68674C13.9569 1.32951 13.8994 1.06547 13.7845 0.894624C13.6727 0.723776 13.5174 0.638351 13.3186 0.638351C13.1229 0.638351 12.9675 0.723776 12.8526 0.894624C12.7408 1.06547 12.6849 1.32951 12.6849 1.68674C12.6849 2.04397 12.7408 2.30801 12.8526 2.47885C12.9675 2.6497 13.1229 2.73513 13.3186 2.73513Z" fill="white"/>
<path d="M16.481 3.37348C16.2108 3.37348 15.97 3.30669 15.7588 3.17312C15.5476 3.03955 15.3814 2.84695 15.2602 2.59534C15.1422 2.34062 15.0832 2.03775 15.0832 1.68674C15.0832 1.33572 15.1422 1.03441 15.2602 0.782796C15.3814 0.528077 15.5476 0.333931 15.7588 0.200358C15.97 0.0667861 16.2108 0 16.481 0C16.7513 0 16.992 0.0667861 17.2032 0.200358C17.4145 0.333931 17.5791 0.528077 17.6971 0.782796C17.8183 1.03441 17.8789 1.33572 17.8789 1.68674C17.8789 2.03775 17.8183 2.34062 17.6971 2.59534C17.5791 2.84695 17.4145 3.03955 17.2032 3.17312C16.992 3.30669 16.7513 3.37348 16.481 3.37348ZM16.481 2.73513C16.6798 2.73513 16.8351 2.6497 16.947 2.47885C17.0619 2.30801 17.1194 2.04397 17.1194 1.68674C17.1194 1.32951 17.0619 1.06547 16.947 0.894624C16.8351 0.723776 16.6798 0.638351 16.481 0.638351C16.2853 0.638351 16.13 0.723776 16.0151 0.894624C15.9032 1.06547 15.8473 1.32951 15.8473 1.68674C15.8473 2.04397 15.9032 2.30801 16.0151 2.47885C16.13 2.6497 16.2853 2.73513 16.481 2.73513Z" fill="white"/>
<path d="M19.6435 3.37348C19.3732 3.37348 19.1325 3.30669 18.9212 3.17312C18.71 3.03955 18.5438 2.84695 18.4227 2.59534C18.3046 2.34062 18.2456 2.03775 18.2456 1.68674C18.2456 1.33572 18.3046 1.03441 18.4227 0.782796C18.5438 0.528077 18.71 0.333931 18.9212 0.200358C19.1325 0.0667861 19.3732 0 19.6435 0C19.9137 0 20.1545 0.0667861 20.3657 0.200358C20.5769 0.333931 20.7416 0.528077 20.8596 0.782796C20.9807 1.03441 21.0413 1.33572 21.0413 1.68674C21.0413 2.03775 20.9807 2.34062 20.8596 2.59534C20.7416 2.84695 20.5769 3.03955 20.3657 3.17312C20.1545 3.30669 19.9137 3.37348 19.6435 3.37348ZM19.6435 2.73513C19.8423 2.73513 19.9976 2.6497 20.1094 2.47885C20.2244 2.30801 20.2818 2.04397 20.2818 1.68674C20.2818 1.32951 20.2244 1.06547 20.1094 0.894624C19.9976 0.723776 19.8423 0.638351 19.6435 0.638351C19.4478 0.638351 19.2925 0.723776 19.1775 0.894624C19.0657 1.06547 19.0098 1.32951 19.0098 1.68674C19.0098 2.04397 19.0657 2.30801 19.1775 2.47885C19.2925 2.6497 19.4478 2.73513 19.6435 2.73513Z" fill="white"/>
<path d="M22.6388 0.0559138V3.31756H21.884V0.661649H21.2317V0.0559138H22.6388Z" fill="white"/>
<path d="M24.6033 3.37348C24.333 3.37348 24.0923 3.30669 23.8811 3.17312C23.6698 3.03955 23.5036 2.84695 23.3825 2.59534C23.2645 2.34062 23.2054 2.03775 23.2054 1.68674C23.2054 1.33572 23.2645 1.03441 23.3825 0.782796C23.5036 0.528077 23.6698 0.333931 23.8811 0.200358C24.0923 0.0667861 24.333 0 24.6033 0C24.8735 0 25.1143 0.0667861 25.3255 0.200358C25.5367 0.333931 25.7014 0.528077 25.8194 0.782796C25.9406 1.03441 26.0011 1.33572 26.0011 1.68674C26.0011 2.03775 25.9406 2.34062 25.8194 2.59534C25.7014 2.84695 25.5367 3.03955 25.3255 3.17312C25.1143 3.30669 24.8735 3.37348 24.6033 3.37348ZM24.6033 2.73513C24.8021 2.73513 24.9574 2.6497 25.0692 2.47885C25.1842 2.30801 25.2416 2.04397 25.2416 1.68674C25.2416 1.32951 25.1842 1.06547 25.0692 0.894624C24.9574 0.723776 24.8021 0.638351 24.6033 0.638351C24.4076 0.638351 24.2523 0.723776 24.1373 0.894624C24.0255 1.06547 23.9696 1.32951 23.9696 1.68674C23.9696 2.04397 24.0255 2.30801 24.1373 2.47885C24.2523 2.6497 24.4076 2.73513 24.6033 2.73513Z" fill="white"/>
<path d="M27.5987 0.0559138V3.31756H26.8438V0.661649H26.1915V0.0559138H27.5987Z" fill="white"/>
<path d="M29.4233 0.0559138V3.31756H28.6685V0.661649H28.0162V0.0559138H29.4233Z" fill="white"/>
<path d="M31.3878 3.37348C31.1175 3.37348 30.8768 3.30669 30.6656 3.17312C30.4543 3.03955 30.2881 2.84695 30.167 2.59534C30.0489 2.34062 29.9899 2.03775 29.9899 1.68674C29.9899 1.33572 30.0489 1.03441 30.167 0.782796C30.2881 0.528077 30.4543 0.333931 30.6656 0.200358C30.8768 0.0667861 31.1175 0 31.3878 0C31.658 0 31.8988 0.0667861 32.11 0.200358C32.3212 0.333931 32.4859 0.528077 32.6039 0.782796C32.7251 1.03441 32.7856 1.33572 32.7856 1.68674C32.7856 2.03775 32.7251 2.34062 32.6039 2.59534C32.4859 2.84695 32.3212 3.03955 32.11 3.17312C31.8988 3.30669 31.658 3.37348 31.3878 3.37348ZM31.3878 2.73513C31.5866 2.73513 31.7419 2.6497 31.8537 2.47885C31.9687 2.30801 32.0261 2.04397 32.0261 1.68674C32.0261 1.32951 31.9687 1.06547 31.8537 0.894624C31.7419 0.723776 31.5866 0.638351 31.3878 0.638351C31.1921 0.638351 31.0368 0.723776 30.9218 0.894624C30.81 1.06547 30.7541 1.32951 30.7541 1.68674C30.7541 2.04397 30.81 2.30801 30.9218 2.47885C31.0368 2.6497 31.1921 2.73513 31.3878 2.73513Z" fill="white"/>
<path d="M34.5502 3.37348C34.28 3.37348 34.0392 3.30669 33.828 3.17312C33.6168 3.03955 33.4506 2.84695 33.3294 2.59534C33.2114 2.34062 33.1524 2.03775 33.1524 1.68674C33.1524 1.33572 33.2114 1.03441 33.3294 0.782796C33.4506 0.528077 33.6168 0.333931 33.828 0.200358C34.0392 0.0667861 34.28 0 34.5502 0C34.8205 0 35.0612 0.0667861 35.2725 0.200358C35.4837 0.333931 35.6483 0.528077 35.7664 0.782796C35.8875 1.03441 35.9481 1.33572 35.9481 1.68674C35.9481 2.03775 35.8875 2.34062 35.7664 2.59534C35.6483 2.84695 35.4837 3.03955 35.2725 3.17312C35.0612 3.30669 34.8205 3.37348 34.5502 3.37348ZM34.5502 2.73513C34.749 2.73513 34.9044 2.6497 35.0162 2.47885C35.1311 2.30801 35.1886 2.04397 35.1886 1.68674C35.1886 1.32951 35.1311 1.06547 35.0162 0.894624C34.9044 0.723776 34.749 0.638351 34.5502 0.638351C34.3545 0.638351 34.1992 0.723776 34.0843 0.894624C33.9725 1.06547 33.9165 1.32951 33.9165 1.68674C33.9165 2.04397 33.9725 2.30801 34.0843 2.47885C34.1992 2.6497 34.3545 2.73513 34.5502 2.73513Z" fill="white"/>
<path d="M37.7127 3.37348C37.4424 3.37348 37.2017 3.30669 36.9905 3.17312C36.7792 3.03955 36.613 2.84695 36.4919 2.59534C36.3739 2.34062 36.3148 2.03775 36.3148 1.68674C36.3148 1.33572 36.3739 1.03441 36.4919 0.782796C36.613 0.528077 36.7792 0.333931 36.9905 0.200358C37.2017 0.0667861 37.4424 0 37.7127 0C37.9829 0 38.2237 0.0667861 38.4349 0.200358C38.6461 0.333931 38.8108 0.528077 38.9288 0.782796C39.05 1.03441 39.1105 1.33572 39.1105 1.68674C39.1105 2.03775 39.05 2.34062 38.9288 2.59534C38.8108 2.84695 38.6461 3.03955 38.4349 3.17312C38.2237 3.30669 37.9829 3.37348 37.7127 3.37348ZM37.7127 2.73513C37.9115 2.73513 38.0668 2.6497 38.1786 2.47885C38.2936 2.30801 38.351 2.04397 38.351 1.68674C38.351 1.32951 38.2936 1.06547 38.1786 0.894624C38.0668 0.723776 37.9115 0.638351 37.7127 0.638351C37.517 0.638351 37.3617 0.723776 37.2467 0.894624C37.1349 1.06547 37.079 1.32951 37.079 1.68674C37.079 2.04397 37.1349 2.30801 37.2467 2.47885C37.3617 2.6497 37.517 2.73513 37.7127 2.73513Z" fill="white"/>
<path d="M40.708 0.0559138V3.31756H39.9532V0.661649H39.3009V0.0559138H40.708Z" fill="white"/>
<path d="M42.6725 3.37348C42.4023 3.37348 42.1615 3.30669 41.9503 3.17312C41.7391 3.03955 41.5729 2.84695 41.4517 2.59534C41.3337 2.34062 41.2747 2.03775 41.2747 1.68674C41.2747 1.33572 41.3337 1.03441 41.4517 0.782796C41.5729 0.528077 41.7391 0.333931 41.9503 0.200358C42.1615 0.0667861 42.4023 0 42.6725 0C42.9428 0 43.1835 0.0667861 43.3947 0.200358C43.606 0.333931 43.7706 0.528077 43.8886 0.782796C44.0098 1.03441 44.0704 1.33572 44.0704 1.68674C44.0704 2.03775 44.0098 2.34062 43.8886 2.59534C43.7706 2.84695 43.606 3.03955 43.3947 3.17312C43.1835 3.30669 42.9428 3.37348 42.6725 3.37348ZM42.6725 2.73513C42.8713 2.73513 43.0266 2.6497 43.1385 2.47885C43.2534 2.30801 43.3109 2.04397 43.3109 1.68674C43.3109 1.32951 43.2534 1.06547 43.1385 0.894624C43.0266 0.723776 42.8713 0.638351 42.6725 0.638351C42.4768 0.638351 42.3215 0.723776 42.2066 0.894624C42.0947 1.06547 42.0388 1.32951 42.0388 1.68674C42.0388 2.04397 42.0947 2.30801 42.2066 2.47885C42.3215 2.6497 42.4768 2.73513 42.6725 2.73513Z" fill="white"/>
<path d="M45.835 3.37348C45.5647 3.37348 45.324 3.30669 45.1127 3.17312C44.9015 3.03955 44.7353 2.84695 44.6142 2.59534C44.4961 2.34062 44.4371 2.03775 44.4371 1.68674C44.4371 1.33572 44.4961 1.03441 44.6142 0.782796C44.7353 0.528077 44.9015 0.333931 45.1127 0.200358C45.324 0.0667861 45.5647 0 45.835 0C46.1052 0 46.3459 0.0667861 46.5572 0.200358C46.7684 0.333931 46.933 0.528077 47.0511 0.782796C47.1722 1.03441 47.2328 1.33572 47.2328 1.68674C47.2328 2.03775 47.1722 2.34062 47.0511 2.59534C46.933 2.84695 46.7684 3.03955 46.5572 3.17312C46.3459 3.30669 46.1052 3.37348 45.835 3.37348ZM45.835 2.73513C46.0338 2.73513 46.1891 2.6497 46.3009 2.47885C46.4158 2.30801 46.4733 2.04397 46.4733 1.68674C46.4733 1.32951 46.4158 1.06547 46.3009 0.894624C46.1891 0.723776 46.0338 0.638351 45.835 0.638351C45.6393 0.638351 45.4839 0.723776 45.369 0.894624C45.2572 1.06547 45.2013 1.32951 45.2013 1.68674C45.2013 2.04397 45.2572 2.30801 45.369 2.47885C45.4839 2.6497 45.6393 2.73513 45.835 2.73513Z" fill="white"/>
<path d="M48.9974 3.37348C48.7272 3.37348 48.4864 3.30669 48.2752 3.17312C48.064 3.03955 47.8978 2.84695 47.7766 2.59534C47.6586 2.34062 47.5996 2.03775 47.5996 1.68674C47.5996 1.33572 47.6586 1.03441 47.7766 0.782796C47.8978 0.528077 48.064 0.333931 48.2752 0.200358C48.4864 0.0667861 48.7272 0 48.9974 0C49.2677 0 49.5084 0.0667861 49.7196 0.200358C49.9309 0.333931 50.0955 0.528077 50.2135 0.782796C50.3347 1.03441 50.3953 1.33572 50.3953 1.68674C50.3953 2.03775 50.3347 2.34062 50.2135 2.59534C50.0955 2.84695 49.9309 3.03955 49.7196 3.17312C49.5084 3.30669 49.2677 3.37348 48.9974 3.37348ZM48.9974 2.73513C49.1962 2.73513 49.3515 2.6497 49.4634 2.47885C49.5783 2.30801 49.6358 2.04397 49.6358 1.68674C49.6358 1.32951 49.5783 1.06547 49.4634 0.894624C49.3515 0.723776 49.1962 0.638351 48.9974 0.638351C48.8017 0.638351 48.6464 0.723776 48.5315 0.894624C48.4196 1.06547 48.3637 1.32951 48.3637 1.68674C48.3637 2.04397 48.4196 2.30801 48.5315 2.47885C48.6464 2.6497 48.8017 2.73513 48.9974 2.73513Z" fill="white"/>
<path d="M51.9928 0.0559138V3.31756H51.2379V0.661649H50.5856V0.0559138H51.9928Z" fill="white"/>
<path d="M53.8174 0.0559138V3.31756H53.0626V0.661649H52.4103V0.0559138H53.8174Z" fill="white"/>
<path d="M55.7819 3.37348C55.5116 3.37348 55.2709 3.30669 55.0597 3.17312C54.8484 3.03955 54.6823 2.84695 54.5611 2.59534C54.4431 2.34062 54.384 2.03775 54.384 1.68674C54.384 1.33572 54.4431 1.03441 54.5611 0.782796C54.6823 0.528077 54.8484 0.333931 55.0597 0.200358C55.2709 0.0667861 55.5116 0 55.7819 0C56.0522 0 56.2929 0.0667861 56.5041 0.200358C56.7154 0.333931 56.88 0.528077 56.998 0.782796C57.1192 1.03441 57.1797 1.33572 57.1797 1.68674C57.1797 2.03775 57.1192 2.34062 56.998 2.59534C56.88 2.84695 56.7154 3.03955 56.5041 3.17312C56.2929 3.30669 56.0522 3.37348 55.7819 3.37348ZM55.7819 2.73513C55.9807 2.73513 56.136 2.6497 56.2478 2.47885C56.3628 2.30801 56.4202 2.04397 56.4202 1.68674C56.4202 1.32951 56.3628 1.06547 56.2478 0.894624C56.136 0.723776 55.9807 0.638351 55.7819 0.638351C55.5862 0.638351 55.4309 0.723776 55.3159 0.894624C55.2041 1.06547 55.1482 1.32951 55.1482 1.68674C55.1482 2.04397 55.2041 2.30801 55.3159 2.47885C55.4309 2.6497 55.5862 2.73513 55.7819 2.73513Z" fill="white"/>
<path d="M58.7773 0.0559138V3.31756H58.0224V0.661649H57.3701V0.0559138H58.7773Z" fill="white"/>
<path d="M1.54695 9.37348C1.2767 9.37348 1.03596 9.30669 0.824732 9.17312C0.613501 9.03955 0.447312 8.84695 0.326165 8.59534C0.208124 8.34062 0.149104 8.03776 0.149104 7.68674C0.149104 7.33572 0.208124 7.03441 0.326165 6.7828C0.447312 6.52808 0.613501 6.33393 0.824732 6.20036C1.03596 6.06679 1.2767 6 1.54695 6C1.81721 6 2.05795 6.06679 2.26918 6.20036C2.48041 6.33393 2.64504 6.52808 2.76308 6.7828C2.88423 7.03441 2.9448 7.33572 2.9448 7.68674C2.9448 8.03776 2.88423 8.34062 2.76308 8.59534C2.64504 8.84695 2.48041 9.03955 2.26918 9.17312C2.05795 9.30669 1.81721 9.37348 1.54695 9.37348ZM1.54695 8.73513C1.74576 8.73513 1.90108 8.6497 2.0129 8.47885C2.12784 8.30801 2.18531 8.04397 2.18531 7.68674C2.18531 7.32951 2.12784 7.06547 2.0129 6.89462C1.90108 6.72378 1.74576 6.63835 1.54695 6.63835C1.35126 6.63835 1.19594 6.72378 1.081 6.89462C0.969176 7.06547 0.913262 7.32951 0.913262 7.68674C0.913262 8.04397 0.969176 8.30801 1.081 8.47885C1.19594 8.6497 1.35126 8.73513 1.54695 8.73513Z" fill="white"/>
<path d="M4.70941 9.37348C4.43916 9.37348 4.19842 9.30669 3.98719 9.17312C3.77595 9.03955 3.60977 8.84695 3.48862 8.59534C3.37058 8.34062 3.31156 8.03776 3.31156 7.68674C3.31156 7.33572 3.37058 7.03441 3.48862 6.7828C3.60977 6.52808 3.77595 6.33393 3.98719 6.20036C4.19842 6.06679 4.43916 6 4.70941 6C4.97966 6 5.2204 6.06679 5.43163 6.20036C5.64286 6.33393 5.8075 6.52808 5.92554 6.7828C6.04668 7.03441 6.10726 7.33572 6.10726 7.68674C6.10726 8.03776 6.04668 8.34062 5.92554 8.59534C5.8075 8.84695 5.64286 9.03955 5.43163 9.17312C5.2204 9.30669 4.97966 9.37348 4.70941 9.37348ZM4.70941 8.73513C4.90821 8.73513 5.06353 8.6497 5.17536 8.47885C5.29029 8.30801 5.34776 8.04397 5.34776 7.68674C5.34776 7.32951 5.29029 7.06547 5.17536 6.89462C5.06353 6.72378 4.90821 6.63835 4.70941 6.63835C4.51371 6.63835 4.35839 6.72378 4.24346 6.89462C4.13163 7.06547 4.07572 7.32951 4.07572 7.68674C4.07572 8.04397 4.13163 8.30801 4.24346 8.47885C4.35839 8.6497 4.51371 8.73513 4.70941 8.73513Z" fill="white"/>
<path d="M7.70477 6.05591V9.31756H6.94994V6.66165H6.29761V6.05591H7.70477Z" fill="white"/>
<path d="M9.52944 6.05591V9.31756H8.7746V6.66165H8.12227V6.05591H9.52944Z" fill="white"/>
<path d="M11.4939 9.37348C11.2236 9.37348 10.9829 9.30669 10.7717 9.17312C10.5604 9.03955 10.3943 8.84695 10.2731 8.59534C10.1551 8.34062 10.096 8.03776 10.096 7.68674C10.096 7.33572 10.1551 7.03441 10.2731 6.7828C10.3943 6.52808 10.5604 6.33393 10.7717 6.20036C10.9829 6.06679 11.2236 6 11.4939 6C11.7641 6 12.0049 6.06679 12.2161 6.20036C12.4273 6.33393 12.592 6.52808 12.71 6.7828C12.8312 7.03441 12.8917 7.33572 12.8917 7.68674C12.8917 8.03776 12.8312 8.34062 12.71 8.59534C12.592 8.84695 12.4273 9.03955 12.2161 9.17312C12.0049 9.30669 11.7641 9.37348 11.4939 9.37348ZM11.4939 8.73513C11.6927 8.73513 11.848 8.6497 11.9598 8.47885C12.0748 8.30801 12.1322 8.04397 12.1322 7.68674C12.1322 7.32951 12.0748 7.06547 11.9598 6.89462C11.848 6.72378 11.6927 6.63835 11.4939 6.63835C11.2982 6.63835 11.1429 6.72378 11.0279 6.89462C10.9161 7.06547 10.8602 7.32951 10.8602 7.68674C10.8602 8.04397 10.9161 8.30801 11.0279 8.47885C11.1429 8.6497 11.2982 8.73513 11.4939 8.73513Z" fill="white"/>
<path d="M14.6563 9.37348C14.3861 9.37348 14.1454 9.30669 13.9341 9.17312C13.7229 9.03955 13.5567 8.84695 13.4356 8.59534C13.3175 8.34062 13.2585 8.03776 13.2585 7.68674C13.2585 7.33572 13.3175 7.03441 13.4356 6.7828C13.5567 6.52808 13.7229 6.33393 13.9341 6.20036C14.1454 6.06679 14.3861 6 14.6563 6C14.9266 6 15.1673 6.06679 15.3786 6.20036C15.5898 6.33393 15.7544 6.52808 15.8725 6.7828C15.9936 7.03441 16.0542 7.33572 16.0542 7.68674C16.0542 8.03776 15.9936 8.34062 15.8725 8.59534C15.7544 8.84695 15.5898 9.03955 15.3786 9.17312C15.1673 9.30669 14.9266 9.37348 14.6563 9.37348ZM14.6563 8.73513C14.8552 8.73513 15.0105 8.6497 15.1223 8.47885C15.2372 8.30801 15.2947 8.04397 15.2947 7.68674C15.2947 7.32951 15.2372 7.06547 15.1223 6.89462C15.0105 6.72378 14.8552 6.63835 14.6563 6.63835C14.4606 6.63835 14.3053 6.72378 14.1904 6.89462C14.0786 7.06547 14.0227 7.32951 14.0227 7.68674C14.0227 8.04397 14.0786 8.30801 14.1904 8.47885C14.3053 8.6497 14.4606 8.73513 14.6563 8.73513Z" fill="white"/>
<path d="M17.8188 9.37348C17.5486 9.37348 17.3078 9.30669 17.0966 9.17312C16.8853 9.03955 16.7192 8.84695 16.598 8.59534C16.48 8.34062 16.421 8.03776 16.421 7.68674C16.421 7.33572 16.48 7.03441 16.598 6.7828C16.7192 6.52808 16.8853 6.33393 17.0966 6.20036C17.3078 6.06679 17.5486 6 17.8188 6C18.0891 6 18.3298 6.06679 18.541 6.20036C18.7523 6.33393 18.9169 6.52808 19.0349 6.7828C19.1561 7.03441 19.2167 7.33572 19.2167 7.68674C19.2167 8.03776 19.1561 8.34062 19.0349 8.59534C18.9169 8.84695 18.7523 9.03955 18.541 9.17312C18.3298 9.30669 18.0891 9.37348 17.8188 9.37348ZM17.8188 8.73513C18.0176 8.73513 18.1729 8.6497 18.2848 8.47885C18.3997 8.30801 18.4572 8.04397 18.4572 7.68674C18.4572 7.32951 18.3997 7.06547 18.2848 6.89462C18.1729 6.72378 18.0176 6.63835 17.8188 6.63835C17.6231 6.63835 17.4678 6.72378 17.3529 6.89462C17.241 7.06547 17.1851 7.32951 17.1851 7.68674C17.1851 8.04397 17.241 8.30801 17.3529 8.47885C17.4678 8.6497 17.6231 8.73513 17.8188 8.73513Z" fill="white"/>
<path d="M20.9813 9.37348C20.711 9.37348 20.4703 9.30669 20.259 9.17312C20.0478 9.03955 19.8816 8.84695 19.7605 8.59534C19.6424 8.34062 19.5834 8.03776 19.5834 7.68674C19.5834 7.33572 19.6424 7.03441 19.7605 6.7828C19.8816 6.52808 20.0478 6.33393 20.259 6.20036C20.4703 6.06679 20.711 6 20.9813 6C21.2515 6 21.4922 6.06679 21.7035 6.20036C21.9147 6.33393 22.0793 6.52808 22.1974 6.7828C22.3185 7.03441 22.3791 7.33572 22.3791 7.68674C22.3791 8.03776 22.3185 8.34062 22.1974 8.59534C22.0793 8.84695 21.9147 9.03955 21.7035 9.17312C21.4922 9.30669 21.2515 9.37348 20.9813 9.37348ZM20.9813 8.73513C21.1801 8.73513 21.3354 8.6497 21.4472 8.47885C21.5621 8.30801 21.6196 8.04397 21.6196 7.68674C21.6196 7.32951 21.5621 7.06547 21.4472 6.89462C21.3354 6.72378 21.1801 6.63835 20.9813 6.63835C20.7856 6.63835 20.6302 6.72378 20.5153 6.89462C20.4035 7.06547 20.3476 7.32951 20.3476 7.68674C20.3476 8.04397 20.4035 8.30801 20.5153 8.47885C20.6302 8.6497 20.7856 8.73513 20.9813 8.73513Z" fill="white"/>
<path d="M23.9766 6.05591V9.31756H23.2218V6.66165H22.5695V6.05591H23.9766Z" fill="white"/>
<path d="M25.9411 9.37348C25.6708 9.37348 25.4301 9.30669 25.2189 9.17312C25.0076 9.03955 24.8414 8.84695 24.7203 8.59534C24.6022 8.34062 24.5432 8.03776 24.5432 7.68674C24.5432 7.33572 24.6022 7.03441 24.7203 6.7828C24.8414 6.52808 25.0076 6.33393 25.2189 6.20036C25.4301 6.06679 25.6708 6 25.9411 6C26.2113 6 26.4521 6.06679 26.6633 6.20036C26.8745 6.33393 27.0392 6.52808 27.1572 6.7828C27.2784 7.03441 27.3389 7.33572 27.3389 7.68674C27.3389 8.03776 27.2784 8.34062 27.1572 8.59534C27.0392 8.84695 26.8745 9.03955 26.6633 9.17312C26.4521 9.30669 26.2113 9.37348 25.9411 9.37348ZM25.9411 8.73513C26.1399 8.73513 26.2952 8.6497 26.407 8.47885C26.522 8.30801 26.5794 8.04397 26.5794 7.68674C26.5794 7.32951 26.522 7.06547 26.407 6.89462C26.2952 6.72378 26.1399 6.63835 25.9411 6.63835C25.7454 6.63835 25.5901 6.72378 25.4751 6.89462C25.3633 7.06547 25.3074 7.32951 25.3074 7.68674C25.3074 8.04397 25.3633 8.30801 25.4751 8.47885C25.5901 8.6497 25.7454 8.73513 25.9411 8.73513Z" fill="white"/>
<path d="M28.9364 6.05591V9.31756H28.1816V6.66165H27.5293V6.05591H28.9364Z" fill="white"/>
<path d="M30.7611 6.05591V9.31756H30.0063V6.66165H29.3539V6.05591H30.7611Z" fill="white"/>
<path d="M32.7256 9.37348C32.4553 9.37348 32.2146 9.30669 32.0033 9.17312C31.7921 9.03955 31.6259 8.84695 31.5048 8.59534C31.3867 8.34062 31.3277 8.03776 31.3277 7.68674C31.3277 7.33572 31.3867 7.03441 31.5048 6.7828C31.6259 6.52808 31.7921 6.33393 32.0033 6.20036C32.2146 6.06679 32.4553 6 32.7256 6C32.9958 6 33.2366 6.06679 33.4478 6.20036C33.659 6.33393 33.8237 6.52808 33.9417 6.7828C34.0628 7.03441 34.1234 7.33572 34.1234 7.68674C34.1234 8.03776 34.0628 8.34062 33.9417 8.59534C33.8237 8.84695 33.659 9.03955 33.4478 9.17312C33.2366 9.30669 32.9958 9.37348 32.7256 9.37348ZM32.7256 8.73513C32.9244 8.73513 33.0797 8.6497 33.1915 8.47885C33.3064 8.30801 33.3639 8.04397 33.3639 7.68674C33.3639 7.32951 33.3064 7.06547 33.1915 6.89462C33.0797 6.72378 32.9244 6.63835 32.7256 6.63835C32.5299 6.63835 32.3745 6.72378 32.2596 6.89462C32.1478 7.06547 32.0919 7.32951 32.0919 7.68674C32.0919 8.04397 32.1478 8.30801 32.2596 8.47885C32.3745 8.6497 32.5299 8.73513 32.7256 8.73513Z" fill="white"/>
<path d="M35.888 9.37348C35.6178 9.37348 35.377 9.30669 35.1658 9.17312C34.9546 9.03955 34.7884 8.84695 34.6672 8.59534C34.5492 8.34062 34.4902 8.03776 34.4902 7.68674C34.4902 7.33572 34.5492 7.03441 34.6672 6.7828C34.7884 6.52808 34.9546 6.33393 35.1658 6.20036C35.377 6.06679 35.6178 6 35.888 6C36.1583 6 36.399 6.06679 36.6102 6.20036C36.8215 6.33393 36.9861 6.52808 37.1041 6.7828C37.2253 7.03441 37.2859 7.33572 37.2859 7.68674C37.2859 8.03776 37.2253 8.34062 37.1041 8.59534C36.9861 8.84695 36.8215 9.03955 36.6102 9.17312C36.399 9.30669 36.1583 9.37348 35.888 9.37348ZM35.888 8.73513C36.0868 8.73513 36.2421 8.6497 36.354 8.47885C36.4689 8.30801 36.5264 8.04397 36.5264 7.68674C36.5264 7.32951 36.4689 7.06547 36.354 6.89462C36.2421 6.72378 36.0868 6.63835 35.888 6.63835C35.6923 6.63835 35.537 6.72378 35.4221 6.89462C35.3102 7.06547 35.2543 7.32951 35.2543 7.68674C35.2543 8.04397 35.3102 8.30801 35.4221 8.47885C35.537 8.6497 35.6923 8.73513 35.888 8.73513Z" fill="white"/>
<path d="M38.8834 6.05591V9.31756H38.1285V6.66165H37.4762V6.05591H38.8834Z" fill="white"/>
<path d="M40.708 6.05591V9.31756H39.9532V6.66165H39.3009V6.05591H40.708Z" fill="white"/>
<path d="M42.6725 9.37348C42.4023 9.37348 42.1615 9.30669 41.9503 9.17312C41.7391 9.03955 41.5729 8.84695 41.4517 8.59534C41.3337 8.34062 41.2747 8.03776 41.2747 7.68674C41.2747 7.33572 41.3337 7.03441 41.4517 6.7828C41.5729 6.52808 41.7391 6.33393 41.9503 6.20036C42.1615 6.06679 42.4023 6 42.6725 6C42.9428 6 43.1835 6.06679 43.3947 6.20036C43.606 6.33393 43.7706 6.52808 43.8886 6.7828C44.0098 7.03441 44.0704 7.33572 44.0704 7.68674C44.0704 8.03776 44.0098 8.34062 43.8886 8.59534C43.7706 8.84695 43.606 9.03955 43.3947 9.17312C43.1835 9.30669 42.9428 9.37348 42.6725 9.37348ZM42.6725 8.73513C42.8713 8.73513 43.0266 8.6497 43.1385 8.47885C43.2534 8.30801 43.3109 8.04397 43.3109 7.68674C43.3109 7.32951 43.2534 7.06547 43.1385 6.89462C43.0266 6.72378 42.8713 6.63835 42.6725 6.63835C42.4768 6.63835 42.3215 6.72378 42.2066 6.89462C42.0947 7.06547 42.0388 7.32951 42.0388 7.68674C42.0388 8.04397 42.0947 8.30801 42.2066 8.47885C42.3215 8.6497 42.4768 8.73513 42.6725 8.73513Z" fill="white"/>
<path d="M45.835 9.37348C45.5647 9.37348 45.324 9.30669 45.1127 9.17312C44.9015 9.03955 44.7353 8.84695 44.6142 8.59534C44.4961 8.34062 44.4371 8.03776 44.4371 7.68674C44.4371 7.33572 44.4961 7.03441 44.6142 6.7828C44.7353 6.52808 44.9015 6.33393 45.1127 6.20036C45.324 6.06679 45.5647 6 45.835 6C46.1052 6 46.3459 6.06679 46.5572 6.20036C46.7684 6.33393 46.933 6.52808 47.0511 6.7828C47.1722 7.03441 47.2328 7.33572 47.2328 7.68674C47.2328 8.03776 47.1722 8.34062 47.0511 8.59534C46.933 8.84695 46.7684 9.03955 46.5572 9.17312C46.3459 9.30669 46.1052 9.37348 45.835 9.37348ZM45.835 8.73513C46.0338 8.73513 46.1891 8.6497 46.3009 8.47885C46.4158 8.30801 46.4733 8.04397 46.4733 7.68674C46.4733 7.32951 46.4158 7.06547 46.3009 6.89462C46.1891 6.72378 46.0338 6.63835 45.835 6.63835C45.6393 6.63835 45.4839 6.72378 45.369 6.89462C45.2572 7.06547 45.2013 7.32951 45.2013 7.68674C45.2013 8.04397 45.2572 8.30801 45.369 8.47885C45.4839 8.6497 45.6393 8.73513 45.835 8.73513Z" fill="white"/>
<path d="M48.9974 9.37348C48.7272 9.37348 48.4864 9.30669 48.2752 9.17312C48.064 9.03955 47.8978 8.84695 47.7766 8.59534C47.6586 8.34062 47.5996 8.03776 47.5996 7.68674C47.5996 7.33572 47.6586 7.03441 47.7766 6.7828C47.8978 6.52808 48.064 6.33393 48.2752 6.20036C48.4864 6.06679 48.7272 6 48.9974 6C49.2677 6 49.5084 6.06679 49.7196 6.20036C49.9309 6.33393 50.0955 6.52808 50.2135 6.7828C50.3347 7.03441 50.3953 7.33572 50.3953 7.68674C50.3953 8.03776 50.3347 8.34062 50.2135 8.59534C50.0955 8.84695 49.9309 9.03955 49.7196 9.17312C49.5084 9.30669 49.2677 9.37348 48.9974 9.37348ZM48.9974 8.73513C49.1962 8.73513 49.3515 8.6497 49.4634 8.47885C49.5783 8.30801 49.6358 8.04397 49.6358 7.68674C49.6358 7.32951 49.5783 7.06547 49.4634 6.89462C49.3515 6.72378 49.1962 6.63835 48.9974 6.63835C48.8017 6.63835 48.6464 6.72378 48.5315 6.89462C48.4196 7.06547 48.3637 7.32951 48.3637 7.68674C48.3637 8.04397 48.4196 8.30801 48.5315 8.47885C48.6464 8.6497 48.8017 8.73513 48.9974 8.73513Z" fill="white"/>
<path d="M51.9928 6.05591V9.31756H51.2379V6.66165H50.5856V6.05591H51.9928Z" fill="white"/>
<path d="M53.9572 9.37348C53.687 9.37348 53.4462 9.30669 53.235 9.17312C53.0238 9.03955 52.8576 8.84695 52.7364 8.59534C52.6184 8.34062 52.5594 8.03776 52.5594 7.68674C52.5594 7.33572 52.6184 7.03441 52.7364 6.7828C52.8576 6.52808 53.0238 6.33393 53.235 6.20036C53.4462 6.06679 53.687 6 53.9572 6C54.2275 6 54.4682 6.06679 54.6795 6.20036C54.8907 6.33393 55.0553 6.52808 55.1734 6.7828C55.2945 7.03441 55.3551 7.33572 55.3551 7.68674C55.3551 8.03776 55.2945 8.34062 55.1734 8.59534C55.0553 8.84695 54.8907 9.03955 54.6795 9.17312C54.4682 9.30669 54.2275 9.37348 53.9572 9.37348ZM53.9572 8.73513C54.156 8.73513 54.3114 8.6497 54.4232 8.47885C54.5381 8.30801 54.5956 8.04397 54.5956 7.68674C54.5956 7.32951 54.5381 7.06547 54.4232 6.89462C54.3114 6.72378 54.156 6.63835 53.9572 6.63835C53.7615 6.63835 53.6062 6.72378 53.4913 6.89462C53.3795 7.06547 53.3235 7.32951 53.3235 7.68674C53.3235 8.04397 53.3795 8.30801 53.4913 8.47885C53.6062 8.6497 53.7615 8.73513 53.9572 8.73513Z" fill="white"/>
<path d="M56.9526 6.05591V9.31756H56.1978V6.66165H55.5454V6.05591H56.9526Z" fill="white"/>
<path d="M58.7773 6.05591V9.31756H58.0224V6.66165H57.3701V6.05591H58.7773Z" fill="white"/>
<path d="M1.54695 15.3735C1.2767 15.3735 1.03596 15.3067 0.824732 15.1731C0.613501 15.0395 0.447312 14.847 0.326165 14.5953C0.208124 14.3406 0.149104 14.0378 0.149104 13.6867C0.149104 13.3357 0.208124 13.0344 0.326165 12.7828C0.447312 12.5281 0.613501 12.3339 0.824732 12.2004C1.03596 12.0668 1.2767 12 1.54695 12C1.81721 12 2.05795 12.0668 2.26918 12.2004C2.48041 12.3339 2.64504 12.5281 2.76308 12.7828C2.88423 13.0344 2.9448 13.3357 2.9448 13.6867C2.9448 14.0378 2.88423 14.3406 2.76308 14.5953C2.64504 14.847 2.48041 15.0395 2.26918 15.1731C2.05795 15.3067 1.81721 15.3735 1.54695 15.3735ZM1.54695 14.7351C1.74576 14.7351 1.90108 14.6497 2.0129 14.4789C2.12784 14.308 2.18531 14.044 2.18531 13.6867C2.18531 13.3295 2.12784 13.0655 2.0129 12.8946C1.90108 12.7238 1.74576 12.6384 1.54695 12.6384C1.35126 12.6384 1.19594 12.7238 1.081 12.8946C0.969176 13.0655 0.913262 13.3295 0.913262 13.6867C0.913262 14.044 0.969176 14.308 1.081 14.4789C1.19594 14.6497 1.35126 14.7351 1.54695 14.7351Z" fill="white"/>
<path d="M4.70941 15.3735C4.43916 15.3735 4.19842 15.3067 3.98719 15.1731C3.77595 15.0395 3.60977 14.847 3.48862 14.5953C3.37058 14.3406 3.31156 14.0378 3.31156 13.6867C3.31156 13.3357 3.37058 13.0344 3.48862 12.7828C3.60977 12.5281 3.77595 12.3339 3.98719 12.2004C4.19842 12.0668 4.43916 12 4.70941 12C4.97966 12 5.2204 12.0668 5.43163 12.2004C5.64286 12.3339 5.8075 12.5281 5.92554 12.7828C6.04668 13.0344 6.10726 13.3357 6.10726 13.6867C6.10726 14.0378 6.04668 14.3406 5.92554 14.5953C5.8075 14.847 5.64286 15.0395 5.43163 15.1731C5.2204 15.3067 4.97966 15.3735 4.70941 15.3735ZM4.70941 14.7351C4.90821 14.7351 5.06353 14.6497 5.17536 14.4789C5.29029 14.308 5.34776 14.044 5.34776 13.6867C5.34776 13.3295 5.29029 13.0655 5.17536 12.8946C5.06353 12.7238 4.90821 12.6384 4.70941 12.6384C4.51371 12.6384 4.35839 12.7238 4.24346 12.8946C4.13163 13.0655 4.07572 13.3295 4.07572 13.6867C4.07572 14.044 4.13163 14.308 4.24346 14.4789C4.35839 14.6497 4.51371 14.7351 4.70941 14.7351Z" fill="white"/>
<path d="M7.87186 15.3735C7.60161 15.3735 7.36087 15.3067 7.14964 15.1731C6.93841 15.0395 6.77222 14.847 6.65107 14.5953C6.53303 14.3406 6.47401 14.0378 6.47401 13.6867C6.47401 13.3357 6.53303 13.0344 6.65107 12.7828C6.77222 12.5281 6.93841 12.3339 7.14964 12.2004C7.36087 12.0668 7.60161 12 7.87186 12C8.14211 12 8.38285 12.0668 8.59408 12.2004C8.80531 12.3339 8.96995 12.5281 9.08799 12.7828C9.20914 13.0344 9.26971 13.3357 9.26971 13.6867C9.26971 14.0378 9.20914 14.3406 9.08799 14.5953C8.96995 14.847 8.80531 15.0395 8.59408 15.1731C8.38285 15.3067 8.14211 15.3735 7.87186 15.3735ZM7.87186 14.7351C8.07067 14.7351 8.22598 14.6497 8.33781 14.4789C8.45275 14.308 8.51021 14.044 8.51021 13.6867C8.51021 13.3295 8.45275 13.0655 8.33781 12.8946C8.22598 12.7238 8.07067 12.6384 7.87186 12.6384C7.67616 12.6384 7.52085 12.7238 7.40591 12.8946C7.29408 13.0655 7.23817 13.3295 7.23817 13.6867C7.23817 14.044 7.29408 14.308 7.40591 14.4789C7.52085 14.6497 7.67616 14.7351 7.87186 14.7351Z" fill="white"/>
<path d="M10.8672 12.0559V15.3176H10.1124V12.6616H9.46006V12.0559H10.8672Z" fill="white"/>
<path d="M12.8317 15.3735C12.5614 15.3735 12.3207 15.3067 12.1095 15.1731C11.8982 15.0395 11.732 14.847 11.6109 14.5953C11.4929 14.3406 11.4338 14.0378 11.4338 13.6867C11.4338 13.3357 11.4929 13.0344 11.6109 12.7828C11.732 12.5281 11.8982 12.3339 12.1095 12.2004C12.3207 12.0668 12.5614 12 12.8317 12C13.1019 12 13.3427 12.0668 13.5539 12.2004C13.7651 12.3339 13.9298 12.5281 14.0478 12.7828C14.169 13.0344 14.2295 13.3357 14.2295 13.6867C14.2295 14.0378 14.169 14.3406 14.0478 14.5953C13.9298 14.847 13.7651 15.0395 13.5539 15.1731C13.3427 15.3067 13.1019 15.3735 12.8317 15.3735ZM12.8317 14.7351C13.0305 14.7351 13.1858 14.6497 13.2976 14.4789C13.4126 14.308 13.47 14.044 13.47 13.6867C13.47 13.3295 13.4126 13.0655 13.2976 12.8946C13.1858 12.7238 13.0305 12.6384 12.8317 12.6384C12.636 12.6384 12.4807 12.7238 12.3657 12.8946C12.2539 13.0655 12.198 13.3295 12.198 13.6867C12.198 14.044 12.2539 14.308 12.3657 14.4789C12.4807 14.6497 12.636 14.7351 12.8317 14.7351Z" fill="white"/>
<path d="M15.9941 15.3735C15.7239 15.3735 15.4831 15.3067 15.2719 15.1731C15.0607 15.0395 14.8945 14.847 14.7733 14.5953C14.6553 14.3406 14.5963 14.0378 14.5963 13.6867C14.5963 13.3357 14.6553 13.0344 14.7733 12.7828C14.8945 12.5281 15.0607 12.3339 15.2719 12.2004C15.4831 12.0668 15.7239 12 15.9941 12C16.2644 12 16.5051 12.0668 16.7164 12.2004C16.9276 12.3339 17.0922 12.5281 17.2103 12.7828C17.3314 13.0344 17.392 13.3357 17.392 13.6867C17.392 14.0378 17.3314 14.3406 17.2103 14.5953C17.0922 14.847 16.9276 15.0395 16.7164 15.1731C16.5051 15.3067 16.2644 15.3735 15.9941 15.3735ZM15.9941 14.7351C16.1929 14.7351 16.3483 14.6497 16.4601 14.4789C16.575 14.308 16.6325 14.044 16.6325 13.6867C16.6325 13.3295 16.575 13.0655 16.4601 12.8946C16.3483 12.7238 16.1929 12.6384 15.9941 12.6384C15.7984 12.6384 15.6431 12.7238 15.5282 12.8946C15.4164 13.0655 15.3604 13.3295 15.3604 13.6867C15.3604 14.044 15.4164 14.308 15.5282 14.4789C15.6431 14.6497 15.7984 14.7351 15.9941 14.7351Z" fill="white"/>
<path d="M19.1566 15.3735C18.8863 15.3735 18.6456 15.3067 18.4344 15.1731C18.2231 15.0395 18.0569 14.847 17.9358 14.5953C17.8178 14.3406 17.7587 14.0378 17.7587 13.6867C17.7587 13.3357 17.8178 13.0344 17.9358 12.7828C18.0569 12.5281 18.2231 12.3339 18.4344 12.2004C18.6456 12.0668 18.8863 12 19.1566 12C19.4268 12 19.6676 12.0668 19.8788 12.2004C20.09 12.3339 20.2547 12.5281 20.3727 12.7828C20.4939 13.0344 20.5544 13.3357 20.5544 13.6867C20.5544 14.0378 20.4939 14.3406 20.3727 14.5953C20.2547 14.847 20.09 15.0395 19.8788 15.1731C19.6676 15.3067 19.4268 15.3735 19.1566 15.3735ZM19.1566 14.7351C19.3554 14.7351 19.5107 14.6497 19.6225 14.4789C19.7375 14.308 19.7949 14.044 19.7949 13.6867C19.7949 13.3295 19.7375 13.0655 19.6225 12.8946C19.5107 12.7238 19.3554 12.6384 19.1566 12.6384C18.9609 12.6384 18.8056 12.7238 18.6906 12.8946C18.5788 13.0655 18.5229 13.3295 18.5229 13.6867C18.5229 14.044 18.5788 14.308 18.6906 14.4789C18.8056 14.6497 18.9609 14.7351 19.1566 14.7351Z" fill="white"/>
<path d="M22.152 12.0559V15.3176H21.3971V12.6616H20.7448V12.0559H22.152Z" fill="white"/>
<path d="M23.9766 12.0559V15.3176H23.2218V12.6616H22.5695V12.0559H23.9766Z" fill="white"/>
<path d="M25.9411 15.3735C25.6708 15.3735 25.4301 15.3067 25.2189 15.1731C25.0076 15.0395 24.8414 14.847 24.7203 14.5953C24.6022 14.3406 24.5432 14.0378 24.5432 13.6867C24.5432 13.3357 24.6022 13.0344 24.7203 12.7828C24.8414 12.5281 25.0076 12.3339 25.2189 12.2004C25.4301 12.0668 25.6708 12 25.9411 12C26.2113 12 26.4521 12.0668 26.6633 12.2004C26.8745 12.3339 27.0392 12.5281 27.1572 12.7828C27.2784 13.0344 27.3389 13.3357 27.3389 13.6867C27.3389 14.0378 27.2784 14.3406 27.1572 14.5953C27.0392 14.847 26.8745 15.0395 26.6633 15.1731C26.4521 15.3067 26.2113 15.3735 25.9411 15.3735ZM25.9411 14.7351C26.1399 14.7351 26.2952 14.6497 26.407 14.4789C26.522 14.308 26.5794 14.044 26.5794 13.6867C26.5794 13.3295 26.522 13.0655 26.407 12.8946C26.2952 12.7238 26.1399 12.6384 25.9411 12.6384C25.7454 12.6384 25.5901 12.7238 25.4751 12.8946C25.3633 13.0655 25.3074 13.3295 25.3074 13.6867C25.3074 14.044 25.3633 14.308 25.4751 14.4789C25.5901 14.6497 25.7454 14.7351 25.9411 14.7351Z" fill="white"/>
<path d="M28.9364 12.0559V15.3176H28.1816V12.6616H27.5293V12.0559H28.9364Z" fill="white"/>
<path d="M30.9009 15.3735C30.6306 15.3735 30.3899 15.3067 30.1787 15.1731C29.9674 15.0395 29.8013 14.847 29.6801 14.5953C29.5621 14.3406 29.503 14.0378 29.503 13.6867C29.503 13.3357 29.5621 13.0344 29.6801 12.7828C29.8013 12.5281 29.9674 12.3339 30.1787 12.2004C30.3899 12.0668 30.6306 12 30.9009 12C31.1711 12 31.4119 12.0668 31.6231 12.2004C31.8344 12.3339 31.999 12.5281 32.117 12.7828C32.2382 13.0344 32.2987 13.3357 32.2987 13.6867C32.2987 14.0378 32.2382 14.3406 32.117 14.5953C31.999 14.847 31.8344 15.0395 31.6231 15.1731C31.4119 15.3067 31.1711 15.3735 30.9009 15.3735ZM30.9009 14.7351C31.0997 14.7351 31.255 14.6497 31.3668 14.4789C31.4818 14.308 31.5392 14.044 31.5392 13.6867C31.5392 13.3295 31.4818 13.0655 31.3668 12.8946C31.255 12.7238 31.0997 12.6384 30.9009 12.6384C30.7052 12.6384 30.5499 12.7238 30.4349 12.8946C30.3231 13.0655 30.2672 13.3295 30.2672 13.6867C30.2672 14.044 30.3231 14.308 30.4349 14.4789C30.5499 14.6497 30.7052 14.7351 30.9009 14.7351Z" fill="white"/>
<path d="M34.0634 15.3735C33.7931 15.3735 33.5524 15.3067 33.3411 15.1731C33.1299 15.0395 32.9637 14.847 32.8426 14.5953C32.7245 14.3406 32.6655 14.0378 32.6655 13.6867C32.6655 13.3357 32.7245 13.0344 32.8426 12.7828C32.9637 12.5281 33.1299 12.3339 33.3411 12.2004C33.5524 12.0668 33.7931 12 34.0634 12C34.3336 12 34.5743 12.0668 34.7856 12.2004C34.9968 12.3339 35.1614 12.5281 35.2795 12.7828C35.4006 13.0344 35.4612 13.3357 35.4612 13.6867C35.4612 14.0378 35.4006 14.3406 35.2795 14.5953C35.1614 14.847 34.9968 15.0395 34.7856 15.1731C34.5743 15.3067 34.3336 15.3735 34.0634 15.3735ZM34.0634 14.7351C34.2622 14.7351 34.4175 14.6497 34.5293 14.4789C34.6442 14.308 34.7017 14.044 34.7017 13.6867C34.7017 13.3295 34.6442 13.0655 34.5293 12.8946C34.4175 12.7238 34.2622 12.6384 34.0634 12.6384C33.8677 12.6384 33.7123 12.7238 33.5974 12.8946C33.4856 13.0655 33.4297 13.3295 33.4297 13.6867C33.4297 14.044 33.4856 14.308 33.5974 14.4789C33.7123 14.6497 33.8677 14.7351 34.0634 14.7351Z" fill="white"/>
<path d="M37.0587 12.0559V15.3176H36.3039V12.6616H35.6515V12.0559H37.0587Z" fill="white"/>
<path d="M38.8834 12.0559V15.3176H38.1285V12.6616H37.4762V12.0559H38.8834Z" fill="white"/>
<path d="M40.8478 15.3735C40.5776 15.3735 40.3368 15.3067 40.1256 15.1731C39.9144 15.0395 39.7482 14.847 39.627 14.5953C39.509 14.3406 39.45 14.0378 39.45 13.6867C39.45 13.3357 39.509 13.0344 39.627 12.7828C39.7482 12.5281 39.9144 12.3339 40.1256 12.2004C40.3368 12.0668 40.5776 12 40.8478 12C41.1181 12 41.3588 12.0668 41.5701 12.2004C41.7813 12.3339 41.9459 12.5281 42.064 12.7828C42.1851 13.0344 42.2457 13.3357 42.2457 13.6867C42.2457 14.0378 42.1851 14.3406 42.064 14.5953C41.9459 14.847 41.7813 15.0395 41.5701 15.1731C41.3588 15.3067 41.1181 15.3735 40.8478 15.3735ZM40.8478 14.7351C41.0466 14.7351 41.202 14.6497 41.3138 14.4789C41.4287 14.308 41.4862 14.044 41.4862 13.6867C41.4862 13.3295 41.4287 13.0655 41.3138 12.8946C41.202 12.7238 41.0466 12.6384 40.8478 12.6384C40.6521 12.6384 40.4968 12.7238 40.3819 12.8946C40.2701 13.0655 40.2141 13.3295 40.2141 13.6867C40.2141 14.044 40.2701 14.308 40.3819 14.4789C40.4968 14.6497 40.6521 14.7351 40.8478 14.7351Z" fill="white"/>
<path d="M44.0103 15.3735C43.74 15.3735 43.4993 15.3067 43.2881 15.1731C43.0768 15.0395 42.9106 14.847 42.7895 14.5953C42.6715 14.3406 42.6124 14.0378 42.6124 13.6867C42.6124 13.3357 42.6715 13.0344 42.7895 12.7828C42.9106 12.5281 43.0768 12.3339 43.2881 12.2004C43.4993 12.0668 43.74 12 44.0103 12C44.2805 12 44.5213 12.0668 44.7325 12.2004C44.9437 12.3339 45.1084 12.5281 45.2264 12.7828C45.3476 13.0344 45.4081 13.3357 45.4081 13.6867C45.4081 14.0378 45.3476 14.3406 45.2264 14.5953C45.1084 14.847 44.9437 15.0395 44.7325 15.1731C44.5213 15.3067 44.2805 15.3735 44.0103 15.3735ZM44.0103 14.7351C44.2091 14.7351 44.3644 14.6497 44.4762 14.4789C44.5912 14.308 44.6486 14.044 44.6486 13.6867C44.6486 13.3295 44.5912 13.0655 44.4762 12.8946C44.3644 12.7238 44.2091 12.6384 44.0103 12.6384C43.8146 12.6384 43.6593 12.7238 43.5443 12.8946C43.4325 13.0655 43.3766 13.3295 43.3766 13.6867C43.3766 14.044 43.4325 14.308 43.5443 14.4789C43.6593 14.6497 43.8146 14.7351 44.0103 14.7351Z" fill="white"/>
<path d="M47.1727 15.3735C46.9025 15.3735 46.6618 15.3067 46.4505 15.1731C46.2393 15.0395 46.0731 14.847 45.952 14.5953C45.8339 14.3406 45.7749 14.0378 45.7749 13.6867C45.7749 13.3357 45.8339 13.0344 45.952 12.7828C46.0731 12.5281 46.2393 12.3339 46.4505 12.2004C46.6618 12.0668 46.9025 12 47.1727 12C47.443 12 47.6837 12.0668 47.895 12.2004C48.1062 12.3339 48.2708 12.5281 48.3889 12.7828C48.51 13.0344 48.5706 13.3357 48.5706 13.6867C48.5706 14.0378 48.51 14.3406 48.3889 14.5953C48.2708 14.847 48.1062 15.0395 47.895 15.1731C47.6837 15.3067 47.443 15.3735 47.1727 15.3735ZM47.1727 14.7351C47.3716 14.7351 47.5269 14.6497 47.6387 14.4789C47.7536 14.308 47.8111 14.044 47.8111 13.6867C47.8111 13.3295 47.7536 13.0655 47.6387 12.8946C47.5269 12.7238 47.3716 12.6384 47.1727 12.6384C46.977 12.6384 46.8217 12.7238 46.7068 12.8946C46.595 13.0655 46.5391 13.3295 46.5391 13.6867C46.5391 14.044 46.595 14.308 46.7068 14.4789C46.8217 14.6497 46.977 14.7351 47.1727 14.7351Z" fill="white"/>
<path d="M50.3352 15.3735C50.0649 15.3735 49.8242 15.3067 49.613 15.1731C49.4017 15.0395 49.2356 14.847 49.1144 14.5953C48.9964 14.3406 48.9373 14.0378 48.9373 13.6867C48.9373 13.3357 48.9964 13.0344 49.1144 12.7828C49.2356 12.5281 49.4017 12.3339 49.613 12.2004C49.8242 12.0668 50.0649 12 50.3352 12C50.6054 12 50.8462 12.0668 51.0574 12.2004C51.2687 12.3339 51.4333 12.5281 51.5513 12.7828C51.6725 13.0344 51.733 13.3357 51.733 13.6867C51.733 14.0378 51.6725 14.3406 51.5513 14.5953C51.4333 14.847 51.2687 15.0395 51.0574 15.1731C50.8462 15.3067 50.6054 15.3735 50.3352 15.3735ZM50.3352 14.7351C50.534 14.7351 50.6893 14.6497 50.8011 14.4789C50.9161 14.308 50.9735 14.044 50.9735 13.6867C50.9735 13.3295 50.9161 13.0655 50.8011 12.8946C50.6893 12.7238 50.534 12.6384 50.3352 12.6384C50.1395 12.6384 49.9842 12.7238 49.8692 12.8946C49.7574 13.0655 49.7015 13.3295 49.7015 13.6867C49.7015 14.044 49.7574 14.308 49.8692 14.4789C49.9842 14.6497 50.1395 14.7351 50.3352 14.7351Z" fill="white"/>
<path d="M53.3306 12.0559V15.3176H52.5757V12.6616H51.9234V12.0559H53.3306Z" fill="white"/>
<path d="M55.295 15.3735C55.0248 15.3735 54.784 15.3067 54.5728 15.1731C54.3616 15.0395 54.1954 14.847 54.0742 14.5953C53.9562 14.3406 53.8972 14.0378 53.8972 13.6867C53.8972 13.3357 53.9562 13.0344 54.0742 12.7828C54.1954 12.5281 54.3616 12.3339 54.5728 12.2004C54.784 12.0668 55.0248 12 55.295 12C55.5653 12 55.806 12.0668 56.0172 12.2004C56.2285 12.3339 56.3931 12.5281 56.5111 12.7828C56.6323 13.0344 56.6929 13.3357 56.6929 13.6867C56.6929 14.0378 56.6323 14.3406 56.5111 14.5953C56.3931 14.847 56.2285 15.0395 56.0172 15.1731C55.806 15.3067 55.5653 15.3735 55.295 15.3735ZM55.295 14.7351C55.4938 14.7351 55.6491 14.6497 55.761 14.4789C55.8759 14.308 55.9334 14.044 55.9334 13.6867C55.9334 13.3295 55.8759 13.0655 55.761 12.8946C55.6491 12.7238 55.4938 12.6384 55.295 12.6384C55.0993 12.6384 54.944 12.7238 54.8291 12.8946C54.7172 13.0655 54.6613 13.3295 54.6613 13.6867C54.6613 14.044 54.7172 14.308 54.8291 14.4789C54.944 14.6497 55.0993 14.7351 55.295 14.7351Z" fill="white"/>
<path d="M58.2904 12.0559V15.3176H57.5355V12.6616H56.8832V12.0559H58.2904Z" fill="white"/>
</g>
</svg>
